<?xml version="1.0" encoding="UTF-8"?><svg xmlns="http://www.w3.org/2000/svg" viewBox="0 0 383.5 233.36"><defs><style>.d{fill:#fff;}</style></defs><g id="a"/><g id="b"><g id="c"><g><path class="d" d="M6.31,162.61c-12.98,22.49-5.28,51.24,17.21,64.23h0c22.49,12.98,51.24,5.28,64.23-17.21l34.7-60.1L42.63,99.69,6.31,162.61Z"/><path class="d" d="M197.25,58.43c-12.98,22.49-5.28,51.24,17.21,64.23h0c22.49,12.98,51.24,5.28,64.23-17.21l11.99-20.76c12.67-21.94,5.67-49.97-15.82-63.39h0c-22.57-14.09-52.32-6.67-65.62,16.37l-11.99,20.76Z"/><path class="d" d="M267.36,162.83c-12.98,22.49-5.28,51.24,17.21,64.23h0c22.49,12.98,51.24,5.28,64.23-17.21l34.7-60.1-32.06-20.02c-26.1-16.3-60.52-7.71-75.9,18.94l-8.18,14.16Z"/><path class="d" d="M150.84,6.31h0c-22.49-12.98-51.24-5.28-64.23,17.21l-34.82,60.31,79.81,49.83,36.44-63.12c12.98-22.49,5.28-51.24-17.21-64.23Z"/><circle class="d" cx="191.9" cy="186.53" r="46.83"/></g></g></g></svg>