<?xml version="1.0" encoding="UTF-8"?><svg xmlns="http://www.w3.org/2000/svg" viewBox="0 0 1247.53 233.36"><defs><style>.d{fill:#fff;}</style></defs><g id="a"/><g id="b"><g id="c"><g><g><path class="d" d="M6.31,162.61c-12.98,22.49-5.28,51.24,17.21,64.23h0c22.49,12.98,51.24,5.28,64.23-17.21l34.7-60.1L42.63,99.69,6.31,162.61Z"/><path class="d" d="M197.25,58.43c-12.98,22.49-5.28,51.24,17.21,64.23h0c22.49,12.98,51.24,5.28,64.23-17.21l11.99-20.76c12.67-21.94,5.67-49.97-15.82-63.39h0c-22.57-14.09-52.32-6.67-65.62,16.37l-11.99,20.76Z"/><path class="d" d="M267.36,162.83c-12.98,22.49-5.28,51.24,17.21,64.23h0c22.49,12.98,51.24,5.28,64.23-17.21l34.7-60.1-32.06-20.02c-26.1-16.3-60.52-7.71-75.9,18.94l-8.18,14.16Z"/><path class="d" d="M150.84,6.31h0c-22.49-12.98-51.24-5.28-64.23,17.21l-34.82,60.31,79.81,49.83,36.44-63.12c12.98-22.49,5.28-51.24-17.21-64.23Z"/><circle class="d" cx="191.9" cy="186.53" r="46.83"/></g><g><path class="d" d="M651.49,66.68V212.53h-32.23V93.76l-37.79,118.77h-35.19l-37.38-118.82v118.82h-30.9V66.68h51.71l35.59,112.95,35.95-112.95h50.23Z"/><path class="d" d="M773.49,174.44c-6.12,25.6-26.62,41.15-53.95,41.15-33.91,0-56.81-23.97-56.81-59.41s22.64-59.15,56.2-59.15,55.07,23.36,55.07,59c0,2.7-.1,5.46-.41,8.31h-81.34c1.94,16.83,12.24,26.82,28.15,26.82,11.93,0,19.94-5.61,24.43-16.73h28.66Zm-28.81-28.97c-2.55-16.06-11.27-24.43-25.6-24.43s-24.02,8.87-26.52,24.43h52.12Z"/><path class="d" d="M896.19,61.58V212.53h-30.55v-34.17c-5,23.66-18.51,37.23-37.89,37.23-26.67,0-45.39-24.43-45.39-59.31s18.71-59.26,45.39-59.26c19.38,0,32.89,13.51,37.89,37.17V61.58h30.55Zm-57.06,61.75c-17.03,0-26.01,11.32-26.01,32.94s8.97,32.99,26.01,32.99,26.52-11.98,26.52-32.99-9.64-32.94-26.52-32.94Z"/><path class="d" d="M963.92,97.03c33.61,0,57.01,23.41,57.01,59.26s-23.41,59.31-57.01,59.31-57.01-23.46-57.01-59.31,23.41-59.26,57.01-59.26Zm0,91.94c16.57,0,26.26-11.88,26.26-32.69s-9.69-32.64-26.26-32.64-26.26,11.83-26.26,32.64,9.74,32.69,26.26,32.69Z"/><path class="d" d="M1061.23,188.26h67.52v24.27h-101.33v-25.8l62.57-62.37h-60.58v-24.27h95.41v25.8l-63.59,62.37Z"/><path class="d" d="M1192.91,97.03c34.32,0,54.62,18.05,54.62,48.8v66.7h-30.55v-28.76c-5.05,19.68-21.16,31.82-43.14,31.82s-38.3-13.26-38.3-33.2c0-21.32,17.39-33.96,46.71-33.96h34.73v-2.6c0-15.45-9.13-24.73-24.78-24.73s-22.9,7.75-22.9,20.19h-30.44c0-27.23,20.65-44.26,54.05-44.26Zm-7.5,69.96c-12.65,0-19.33,4.33-19.33,12.6s7.14,13.26,19.79,13.26c17.9,0,31.11-9.59,31.11-22.54v-3.31h-31.57Z"/></g></g></g></g></svg>