<?xml version="1.0" encoding="UTF-8"?><svg xmlns="http://www.w3.org/2000/svg" viewBox="0 0 1310.06 233.36"><defs><style>.d{fill:#025092;}.e{fill:#0e0e0e;}</style></defs><g id="a"/><g id="b"><g id="c"><g><g><path class="d" d="M6.31,162.61c-12.98,22.49-5.28,51.24,17.21,64.23h0c22.49,12.98,51.24,5.28,64.23-17.21l34.7-60.1L42.63,99.69,6.31,162.61Z"/><path class="d" d="M197.25,58.43c-12.98,22.49-5.28,51.24,17.21,64.23h0c22.49,12.98,51.24,5.28,64.23-17.21l11.99-20.76c12.67-21.94,5.67-49.97-15.82-63.39h0c-22.57-14.09-52.32-6.67-65.62,16.37l-11.99,20.76Z"/><path class="d" d="M267.36,162.83c-12.98,22.49-5.28,51.24,17.21,64.23h0c22.49,12.98,51.24,5.28,64.23-17.21l34.7-60.1-32.06-20.02c-26.1-16.3-60.52-7.71-75.9,18.94l-8.18,14.16Z"/><path class="d" d="M150.84,6.31h0c-22.49-12.98-51.24-5.28-64.23,17.21l-34.82,60.31,79.81,49.83,36.44-63.12c12.98-22.49,5.28-51.24-17.21-64.23Z"/><circle class="d" cx="191.9" cy="186.53" r="46.83"/></g><path class="e" d="M651.49,66.68V212.53h-32.23V93.76l-37.79,118.77h-35.19l-37.38-118.82v118.82h-30.9V66.68h51.71l35.59,112.95,35.95-112.95h50.23Z"/><path class="e" d="M773.49,174.44c-6.12,25.6-26.62,41.15-53.95,41.15-33.91,0-56.81-23.97-56.81-59.41s22.64-59.15,56.2-59.15,55.07,23.36,55.07,59c0,2.7-.1,5.46-.41,8.31h-81.34c1.94,16.83,12.24,26.82,28.15,26.82,11.93,0,19.94-5.61,24.43-16.73h28.66Zm-28.81-28.97c-2.55-16.06-11.27-24.43-25.6-24.43s-24.02,8.87-26.52,24.43h52.12Z"/><path class="e" d="M1026.45,97.03c33.61,0,57.01,23.41,57.01,59.26s-23.41,59.31-57.01,59.31-57.01-23.46-57.01-59.31,23.41-59.26,57.01-59.26Zm0,91.94c16.57,0,26.26-11.88,26.26-32.69s-9.69-32.64-26.26-32.64-26.26,11.83-26.26,32.64,9.74,32.69,26.26,32.69Z"/><path class="e" d="M1123.76,188.26h67.52v24.27h-101.33v-25.8l62.57-62.37h-60.58v-24.27h95.41v25.8l-63.59,62.37Z"/><path class="e" d="M1255.44,97.03c34.32,0,54.62,18.05,54.62,48.8v66.7h-30.55v-28.76c-5.05,19.68-21.16,31.82-43.14,31.82s-38.3-13.26-38.3-33.2c0-21.32,17.39-33.96,46.71-33.96h34.73v-2.6c0-15.45-9.13-24.73-24.78-24.73s-22.9,7.75-22.9,20.19h-30.44c0-27.23,20.65-44.26,54.05-44.26Zm-7.5,69.96c-12.65,0-19.33,4.33-19.33,12.6s7.14,13.26,19.79,13.26c17.9,0,31.11-9.59,31.11-22.54v-3.31h-31.57Z"/><path class="d" d="M969.44,156.28c0-3.51,.22-6.91,.67-10.17l-2.8,3.26c-4.83,5.63-10.03,11.27-15.47,16.75-20.05,20.18-29.45,24.42-33.81,24.42-1.98,0-8.02,0-8.02-16.35,0-9.41,1.38-21.06,4.1-34.62l25.6-128.7-5.12,2.03c-12.48,4.94-25.62,7.44-39.05,7.44-10.52,0-18.31-1.68-23.17-4.99l-6.22-4.24,1.6,7.36c2.01,9.24,4.7,15.47,8.21,19.04,3.65,3.71,9.25,5.59,16.65,5.59,3.54,0,7.77-.42,12.61-1.26l-10.38,52.26c-12.24-6.1-23.8-9.19-34.4-9.19-19.55,0-36.88,9.37-51.51,27.86-14.46,18.26-21.79,39.83-21.79,64.12,0,12.33,2.55,22.38,7.59,29.86,5.3,7.86,12.57,11.84,21.61,11.84,10.96,0,22.85-6.33,36.34-19.35,10.23-9.87,20.2-22.6,29.74-37.98-.61,6.19-.91,12.17-.91,17.88,0,26.18,8.66,39.45,25.73,39.45,12.84,0,29.18-9.73,49.94-29.75,5.03-4.85,9.84-9.87,14.35-14.92-1.37-5.46-2.09-11.36-2.09-17.64Zm-82.85-34.44c-38.76,60.26-53.53,69.26-58.88,69.26s-11.85-2.04-11.85-19.72,4-34.15,11.9-47.4c7.7-12.94,16.4-19.23,26.61-19.23,9.16,0,20.84,4.46,34.74,13.28-1.3,1.94-2.12,3.2-2.52,3.81Z"/></g></g></g></svg>